<?xml version="1.0" encoding="UTF-8" standalone="no"?>
<svg
   viewBox="0 0 450 319"
   version="1.1"
   id="svg34"
   sodipodi:docname="bratwurst-icon-mobil.svg"
   xml:space="preserve"
   inkscape:version="1.3 (0e150ed6c4, 2023-07-21)"
   xmlns:inkscape="http://www.inkscape.org/namespaces/inkscape"
   xmlns:sodipodi="http://sodipodi.sourceforge.net/DTD/sodipodi-0.dtd"
   xmlns:xlink="http://www.w3.org/1999/xlink"
   xmlns="http://www.w3.org/2000/svg"
   xmlns:svg="http://www.w3.org/2000/svg"><sodipodi:namedview
     id="namedview34"
     pagecolor="#ffffff"
     bordercolor="#000000"
     borderopacity="0.25"
     inkscape:showpageshadow="2"
     inkscape:pageopacity="0.0"
     inkscape:pagecheckerboard="0"
     inkscape:deskcolor="#d1d1d1"
     inkscape:zoom="0.32305556"
     inkscape:cx="-264.66036"
     inkscape:cy="-416.33706"
     inkscape:current-layer="svg34" /><defs
     id="defs10"><filter
       id="j"
       x="-0.02643097"
       y="-0.056431418"
       width="1.0528619"
       height="1.1128628"><feGaussianBlur
         stdDeviation="7.4797"
         id="feGaussianBlur1" /></filter><linearGradient
       id="a"><stop
         stop-color="#fff"
         offset="0"
         id="stop1" /><stop
         stop-color="#fff"
         stop-opacity="0"
         offset="1"
         id="stop2" /></linearGradient><linearGradient
       id="i"
       x1="268.61"
       x2="515.55"
       y1="-204.34"
       y2="8.7893"
       gradientUnits="userSpaceOnUse"
       gradientTransform="matrix(0.62358,0,0,0.62358,-42.769,295.04)"><stop
         stop-color="#e88f1b"
         offset="0"
         id="stop3" /><stop
         stop-color="#bb6a1b"
         offset="1"
         id="stop4" /></linearGradient><linearGradient
       id="h"
       x1="416.86"
       x2="399.46"
       y1="-229.35"
       y2="-97.997"
       gradientUnits="userSpaceOnUse"
       gradientTransform="matrix(0.62358,0,0,0.62358,-42.769,295.04)"><stop
         stop-color="#333"
         offset="0"
         id="stop5" /><stop
         stop-color="#333"
         stop-opacity="0"
         offset="1"
         id="stop6" /></linearGradient><linearGradient
       id="g"
       x1="101.38"
       x2="329.55"
       y1="-220.6"
       y2="-296.99"
       gradientUnits="userSpaceOnUse"
       xlink:href="#a"
       gradientTransform="matrix(0.62358,0,0,0.62358,-42.769,295.04)" /><linearGradient
       id="f"
       x1="1113.8"
       x2="587.16"
       y1="95.348"
       y2="-202.93"
       gradientUnits="userSpaceOnUse"
       xlink:href="#a"
       gradientTransform="matrix(0.62358,0,0,0.62358,-42.769,295.04)" /><linearGradient
       id="e"
       x1="469.84"
       x2="412.25"
       y1="-446.04"
       y2="-176.87"
       gradientUnits="userSpaceOnUse"
       xlink:href="#a"
       gradientTransform="matrix(0.62358,0,0,0.62358,-42.769,295.04)" /><linearGradient
       id="d"
       x1="425.25"
       x2="468.12"
       y1="-159.41"
       y2="-365.17"
       gradientUnits="userSpaceOnUse"
       xlink:href="#a"
       gradientTransform="matrix(0.62358,0,0,0.62358,-42.769,295.04)" /><radialGradient
       id="c"
       cx="392.61"
       cy="-13.438"
       r="35.549"
       gradientTransform="matrix(2.0633639,-5.9836866e-8,6.7552421e-8,2.3293831,-435.99855,222.95415)"
       gradientUnits="userSpaceOnUse"><stop
         stop-color="#c18028"
         offset="0"
         id="stop7" /><stop
         stop-color="#c18028"
         stop-opacity="0"
         offset="1"
         id="stop8" /></radialGradient><radialGradient
       id="b"
       cx="247.8"
       cy="-128.96"
       r="152.33"
       gradientTransform="matrix(2.4905785,0.79824476,-0.30342156,0.94671916,-466.77846,51.906158)"
       gradientUnits="userSpaceOnUse"><stop
         stop-color="#662808"
         offset="0"
         id="stop9" /><stop
         stop-color="#662808"
         stop-opacity="0"
         offset="1"
         id="stop10" /></radialGradient></defs><path
     d="m 452.97,-357.53 -58.25,1.2188 -0.4375,0.0625 -0.375,0.0625 -54.5,16.156 H 339.22 l -0.1875,0.125 -52,22.281 -0.3125,0.125 -0.3125,0.21875 -23.844,19.719 c -8.3626,0.55746 -16.735,1.3132 -25.062,2.3438 -22.033,2.7266 -43.85,9.6773 -63.938,19.75 -4.3363,0.0829 -8.6092,0.71201 -12.312,2.7188 -4.183,2.2666 -7.5856,6.0471 -10.031,10.281 -0.72429,0.48238 -1.4705,0.94686 -2.1875,1.4375 -8.0512,5.5094 -16.347,11.417 -24.25,17.844 l -0.0312,0.0312 c -4.7355,3.8527 -9.3051,7.8995 -13.594,12.156 -0.71542,0.70991 -1.4268,1.4029 -2.125,2.125 -0.45889,0.47454 -0.92403,0.95762 -1.375,1.4375 -6.777,-1.6418 -14.281,-5.3125 -14.281,-5.3125 0,0 -1.033,11.406 0,16.969 0.32115,1.7296 0.59504,3.5827 0.96875,5.4062 -1.0366,1.6767 -1.9933,3.3885 -2.9062,5.125 -0.0042,0.008 0.0042,0.0232 0,0.0312 -0.4465,0.85002 -0.89765,1.6978 -1.3125,2.5625 -0.004,0.008 0.004,0.0229 0,0.0312 -1.6701,3.4845 -3.0857,7.1101 -4.1875,10.844 -0.18857,0.63898 -0.35547,1.2841 -0.5,1.9375 -0.04082,0.1861 -0.08772,0.37535 -0.125,0.5625 -0.22629,1.1253 -0.36488,2.2821 -0.46875,3.4375 -0.10744,1.2318 -0.14831,2.4675 -0.125,3.7188 0.0048,0.29261 0.0196,0.58184 0.03125,0.875 0.0056,0.13497 -0.0071,0.2712 0,0.40625 0.03201,0.63555 0.09305,1.27 0.15625,1.9062 0.01052,0.1044 0.01991,0.20812 0.03125,0.3125 0.62951,5.8722 2.5253,11.744 5.3125,16.781 0.29045,0.54748 0.62008,1.0751 0.9375,1.5938 1.1221,1.8335 2.4836,3.5707 3.9688,5.1875 5.2399,5.7489 12.414,10.051 19.719,12.344 9.4789,2.9745 20.027,1.0096 29.781,-0.875 20.776,-4.0141 39.317,-15.753 59.562,-21.906 9.1392,-2.7778 18.31,-5.8746 27.5,-8.8438 0.24849,1.3008 0.53096,2.5922 0.84375,3.875 4.2088,17.26 13.191,33.637 24.531,47.312 1.6212,1.955 3.3185,3.875 5.0625,5.7188 7.1707,10.083 16.385,21.9 24.094,28.156 23.236,18.857 51.627,31.905 80.531,39.656 41.983,11.259 86.752,11.529 130.12,8.6875 23.118,-1.5144 47.921,-2.3184 68.125,-13.656 12.745,-7.1524 21.209,-20.328 29.75,-32.188 4.6696,-6.484 10.925,-19.19 12.812,-23.094 3.4262,1.8592 6.8376,3.8005 10.219,5.7188 20.714,11.752 37.432,30.608 59.562,39.406 19.008,7.5568 41.692,18.646 60.469,10.531 14.128,-6.1059 21.91,-23.574 25.406,-38.562 1.6049,-6.8795 0.021,-14.481 -2.625,-21.031 -4.7908,-11.859 -11.56,-22.876 -19.469,-33.125 0.004,-0.009 -0.004,-0.0225 0,-0.0312 -1.227,-1.5896 -2.5021,-3.1342 -3.7812,-4.6875 -0.89493,-1.0868 -1.8012,-2.181 -2.7188,-3.25 -0.16916,-0.19706 -0.3301,-0.39729 -0.5,-0.59375 -0.94549,-1.0936 -1.9084,-2.1749 -2.875,-3.25 -0.14822,-0.16479 -0.28882,-0.33564 -0.4375,-0.5 -0.99947,-1.1054 -2.0123,-2.1953 -3.0312,-3.2812 -2.398,-2.5546 -4.8622,-5.0508 -7.3438,-7.5 -1.1537,-1.1388 -2.3021,-2.2897 -3.4688,-3.4062 -1.2251,-1.1725 -2.4524,-2.3208 -3.6875,-3.4688 -5.8936,-5.4777 -12.4,-10.237 -19.219,-14.562 -2.9301,-1.8611 -5.9154,-3.6162 -8.9375,-5.3438 -2.0013,-1.1428 -4.0068,-2.2734 -6.0312,-3.375 h -0.0312 c -2.0325,-1.1058 -4.0518,-2.203 -6.0938,-3.2812 -2.042,-1.0782 -4.0876,-2.154 -6.125,-3.2188 -5.4051,-2.8248 -10.852,-5.5907 -16.312,-8.3438 -1.3399,-0.67597 -2.6566,-1.3608 -4,-2.0312 -2.2778,-1.136 -4.5557,-2.2569 -6.8438,-3.375 -0.84294,-0.41225 -1.6869,-0.8404 -2.5312,-1.25 l -4.3438,-2.0938 c -3.5743,-1.7086 -7.1493,-3.3795 -10.75,-5.0312 l -0.0625,-0.0312 -1.5938,-0.71875 c -0.51939,-2.1421 -1.0661,-4.4847 -1.6875,-7.375 l -9.5938,-16.594 c -0.90109,-1.6083 -1.799,-3.1983 -2.75,-4.7812 l -6.8438,-11.844 -0.125,-0.375 -0.25,-0.34375 -27.281,-34.656 -0.375,-0.46875 -0.46875,-0.3125 -52.031,-30.969 -0.34375,-0.1875 -0.3125,-0.0625 -64.438,-19.875 -0.5,-0.125 h -0.46875 z"
     filter="url(#j)"
     opacity="0.5"
     id="path10"
     transform="matrix(0.62358,0,0,0.62358,-42.769,295.04)" /><path
     d="m 113.31307,207.04039 c 0,0 13.00664,20.95977 22.40835,28.5899 14.48951,11.75884 32.20167,19.89282 50.22563,24.72681 26.17976,7.02089 54.08746,7.18053 81.13399,5.40894 14.41593,-0.94435 29.90004,-1.42968 42.49885,-8.50002 7.94753,-4.4601 13.21865,-12.69484 18.54465,-20.0905 3.43567,-4.77076 8.50001,-15.45419 8.50001,-15.45419 l -141.403,-16.22679 z"
     fill="#d47a25"
     id="path11"
     style="stroke-width:0.62358" /><path
     d="m 102.25076,158.7753 c -1.85072,8.54429 -2.07103,17.73337 0,26.22653 2.62453,10.76299 8.2269,20.97723 15.29892,29.50468 8.86107,10.68505 20.84503,18.59641 32.78284,25.68028 12.27829,7.28528 25.4932,13.45748 39.3398,16.93768 10.28283,2.58492 21.10818,2.07521 31.69033,2.7319 14.37103,0.89178 28.88236,3.46829 43.16421,1.63914 13.77363,-1.76398 27.75492,-5.26308 39.88605,-12.02075 9.13045,-5.08598 16.70134,-12.82018 23.49462,-20.76272 6.60059,-7.71743 15.2802,-15.58576 16.39142,-25.68027 1.39988,-12.71355 -13.11326,-36.06163 -13.11326,-36.06163 L 115.90717,128.72348 c 0,0 -11.33045,19.29731 -13.65952,30.05095 z"
     fill="url(#i)"
     id="path12"
     style="fill:url(#i);stroke-width:0.62358" /><path
     d="m 118.21543,133.57848 c -0.91776,1.6 -2.08103,3.5472 -4.38143,8.08579 -3.05827,6.03356 -6.35947,13.52858 -7.32893,18.00369 -1.72887,7.98128 -1.92248,16.57614 -0.0398,24.29638 2.43729,9.99526 7.71769,19.68106 14.41825,27.76201 8.30145,10.01081 19.84676,17.68249 31.6661,24.69532 12.0308,7.13877 24.90181,13.14748 38.19841,16.49075 9.444,2.37406 19.99716,1.91189 30.90899,2.58896 14.70631,0.91262 28.8964,3.38966 42.30134,1.67291 13.42916,-1.71994 26.91823,-5.09903 38.35774,-11.47138 8.37971,-4.66783 15.64058,-12.04354 22.30545,-19.83529 6.87659,-8.03978 14.46541,-15.40733 15.33469,-23.30091 0.48916,-4.44261 -2.28867,-13.34631 -5.61613,-20.51338 -2.5961,-5.59102 -4.8329,-9.37122 -5.89502,-11.15272 L 118.21301,133.57912 Z"
     fill="#e5be79"
     id="path13"
     style="stroke-width:1.2746" /><path
     d="m 130.87932,160.87053 c -14.79506,0.016 -18.53654,0.0237 -24.61519,0.0398 -1.49036,7.62951 -1.58726,15.73542 0.19915,23.06186 0.73383,3.00946 1.77676,5.96417 2.98726,8.88228 4.77961,0.70863 9.96668,0.77554 14.41842,2.07116 21.7461,6.32871 42.62979,15.9069 64.88349,20.11419 24.10823,4.55806 48.87246,5.28035 73.40784,5.41692 16.51614,0.0919 32.9824,-2.12049 49.46923,-3.1068 5.88223,-0.35188 12.98356,1.93334 18.91941,1.71272 4.74994,-5.51999 8.78126,-10.86962 9.39985,-16.48995 0.48915,-4.44251 -2.28854,-13.34648 -5.61609,-20.51266 -2.59596,-5.5909 -4.83274,-9.37116 -5.89489,-11.15273 l -54.01013,-9.59939 c -45.50326,-0.46011 -105.4162,-0.47937 -143.54812,-0.43813 z"
     fill="url(#h)"
     id="path14"
     style="fill:url(#h);stroke-width:0.62358" /><path
     d="m 14.103367,191.37606 c -3.469786,-5.66959 -5.1596883,-13.29472 -3.278285,-19.66958 5.510015,-18.67124 23.273876,-32.1705 39.339791,-43.16421 16.273568,-11.13589 35.615772,-18.88699 55.184957,-21.30898 63.73611,-7.88766 129.13095,7.13875 191.23328,23.49463 26.68923,7.02837 52.03339,18.90694 76.49456,31.69033 10.16373,5.31178 20.55819,10.76985 28.95843,18.57707 12.00641,11.15897 23.36492,24.14128 29.50469,39.3398 1.64999,4.08438 2.63993,8.82303 1.63914,13.11326 -2.18047,9.34684 -7.03523,20.2333 -15.84517,24.04088 -11.70896,5.06029 -25.84739,-1.84436 -37.7004,-6.55632 -13.80044,-5.48638 -24.2373,-17.25882 -37.15414,-24.58714 -8.78562,-4.98452 -17.77203,-9.81452 -27.31904,-13.11326 -23.09678,-7.98058 -47.69826,-10.65262 -71.57451,-15.84517 -34.94044,-7.5977 -69.15502,-22.89287 -104.90487,-22.40149 -18.5515,0.25467 -36.34099,7.71805 -54.091819,13.11327 -12.625,3.83726 -24.198645,11.15647 -37.154143,13.65952 -6.082524,1.1752 -12.666157,2.40122 -18.577072,0.54638 -5.838891,-1.83227 -11.558055,-5.708 -14.752656,-10.92762 z"
     fill="#994813"
     id="path15"
     style="stroke-width:0.62358" /><path
     d="m 338.89937,145.81107 c -5.49635,3.65424 -9.56696,8.53307 -10.07705,14.41842 -1.17944,13.60963 20.54946,18.15428 29.35503,28.598 3.22372,3.82342 4.87565,8.92468 8.48381,12.38742 7.6825,7.37258 18.53591,10.56594 27.04466,16.96761 7.72616,5.81264 21.62763,19.31788 21.62763,19.31788 0,0 -1.43193,-7.69373 -1.51356,-11.59048 -0.11917,-5.68861 0.0813,-11.46078 1.51356,-16.96761 0.63854,-2.4551 2.23185,-4.58924 3.1068,-6.97038 0.28333,-0.77105 0.60752,-1.52989 0.95594,-2.31017 -5.20246,-6.73966 -11.20448,-12.95363 -17.36607,-18.68059 -8.40025,-7.80722 -18.79284,-13.2492 -28.95657,-18.56086 -11.19139,-5.84881 -22.5686,-11.5169 -34.17467,-16.60905 z"
     fill="url(#c)"
     id="path16"
     style="fill:url(#c);stroke-width:0.62358" /><path
     d="m 141.34299,105.06012 c -12.03447,0.0102 -24.05584,0.6719 -36.00675,2.15085 -19.569189,2.4218 -38.892062,10.17371 -55.165006,21.30898 -16.065915,10.99371 -33.84231,24.50482 -39.352263,43.17605 -1.0111974,3.42645 -0.9730967,7.22293 -0.199153,10.87399 2.971172,1.31307 6.113766,1.94364 9.121105,1.63303 12.340648,-1.27454 15.272721,-19.7706 24.695015,-27.8416 10.472402,-8.9702 22.441397,-16.21308 34.772068,-22.38465 8.599792,-4.30414 17.53507,-8.60541 27.044664,-10.03714 22.4495,-3.38006 46.27026,-2.61062 68.03258,3.86357 24.77234,7.37072 44.22741,26.78089 67.19698,38.63577 15.87323,8.19384 32.36505,15.18293 48.71282,22.38465 14.57805,6.42225 28.26626,16.1526 44.0129,18.56086 10.74179,1.64314 21.77916,-5.0987 32.46171,-3.1068 6.7939,1.26687 12.48781,5.98107 18.56085,9.28074 4.46378,2.42517 13.14382,7.72741 13.14382,7.72741 0,0 -15.57141,-18.43303 -23.18158,-27.80169 -4.971,-6.11976 -11.24939,-11.47076 -14.69716,-18.56086 -2.89584,-5.95532 -0.52313,-14.11536 -4.62035,-19.31789 -1.02766,-1.3049 -2.20112,-2.47623 -3.42545,-3.54493 -18.03893,-8.64469 -36.57484,-16.27481 -55.84222,-21.34888 -50.46196,-13.28911 -103.10895,-25.69461 -155.25894,-25.65096 z"
     fill="url(#b)"
     id="path17"
     style="fill:url(#b);stroke-width:0.62358" /><path
     d="m 88.488354,132.42904 -16.211209,6.97038 -16.251118,11.59048 -13.103911,3.86358 -12.387416,8.4838 -9.280741,13.90085 -8.165157,12.3076 c 0.317689,0.62202 0.638359,1.24816 0.995733,1.8322 0.876504,1.43212 1.979492,2.7677 3.186431,3.98306 l 6.333079,-15.81275 7.727403,-12.3475 9.240832,-6.17369 19.317885,-10.03715 15.454183,-10.07705 13.143819,-8.48381 z"
     fill="#b76c32"
     id="path18"
     style="stroke-width:0.62358" /><path
     d="m 19.229818,166.57628 c 3.769229,3.04875 9.667984,3.46549 14.365412,2.26828 8.011133,-2.04173 13.299715,-9.83823 19.65836,-15.12182 7.550307,-6.27321 12.758447,-16.1501 21.92632,-19.65836 8.238739,-3.15238 17.707801,-1.07779 26.46286,0 6.18816,0.76177 12.8127,7.76607 18.14618,4.53655 6.43161,-3.89451 9.94361,-16.01915 5.29258,-21.92632 -4.83312,-6.13859 -15.68055,-0.92309 -23.43851,0 -7.46612,0.88835 -14.407812,5.32312 -21.926316,5.29257 -3.117401,-0.0127 -5.961986,-2.0691 -9.073089,-2.26827 -4.305197,-0.27563 -9.060618,-0.54315 -12.853231,1.51218 -3.461306,1.8756 -6.079593,5.42552 -7.560908,9.07309 -1.236434,3.04456 1.116832,7.12876 -0.75609,9.82887 -4.434403,6.39294 -13.411335,9.25143 -21.170541,9.82886 -4.453609,0.33156 -12.853231,-3.78045 -12.853231,-3.78045 0,0 -0.644159,7.11629 0,10.58527 0.640853,3.45139 1.051106,7.6214 3.780453,9.82887 z"
     fill="#d4aa00"
     id="path19"
     style="stroke-width:0.62358" /><path
     d="m 274.72676,183.72473 44.8036,15.29892 10.92761,-1.09277 8.74197,-2.18552 29.50469,9.8351 -18.57707,-13.11326 -15.29892,-5.46387 -8.74196,5.46387 -13.11327,-2.18552 -15.29891,-5.46387 -28.41217,-2.18553 z"
     fill="#5c2c1c"
     id="path20"
     style="stroke-width:0.62358" /><path
     d="m 413.07422,231.33507 c -4.17294,2.4675 -10.06957,2.02114 -14.54251,0.15272 -7.62826,-3.18624 -11.7258,-11.66967 -17.2476,-17.82254 -6.55632,-7.30586 -10.27161,-17.83563 -18.83087,-22.64094 -7.69186,-4.31816 -17.36234,-3.64426 -26.18101,-3.85248 -6.23312,-0.1472 -13.80668,5.81801 -18.61324,1.84649 -5.79599,-4.78935 -7.50603,-17.29624 -2.04415,-22.46323 5.67532,-5.36952 15.64811,1.36957 23.18906,3.41223 7.25723,1.96578 13.47931,7.36386 20.92236,8.42831 3.08604,0.44131 6.1997,-1.17906 9.30631,-0.92321 4.29946,0.35407 9.04316,0.78166 12.49654,3.36727 3.15139,2.3595 5.22498,6.25264 6.15948,10.07705 0.77997,3.19217 -2.14275,6.89056 -0.68289,9.83448 3.45651,6.97038 11.92161,11.10534 19.51369,12.80647 10.52167,0.23787 16.04347,-4.83917 11.7258,8.60353 -1.13647,3.32131 -2.14948,7.38755 -5.1711,9.17411 z"
     fill="#d4aa00"
     id="path21"
     style="stroke-width:0.62358" /><path
     d="m 119.10613,116.00395 c -5.03977,0.11043 -11.11095,2.36561 -15.9599,2.94255 -7.466128,0.88835 -14.404079,5.33098 -21.922583,5.30043 -3.117401,-0.0127 -5.950325,-2.08077 -9.061241,-2.27994 -4.305196,-0.27563 -9.0681,-0.53533 -12.861337,1.51998 -3.461306,1.8756 -6.079656,5.41386 -7.560908,9.06124 -1.236434,3.04457 1.112903,7.14061 -0.760019,9.84072 -4.434402,6.39294 -13.403852,9.24395 -21.163058,9.82138 -4.453608,0.33156 -12.861338,-3.78045 -12.861338,-3.78045 0,0 -0.644158,7.11255 0,10.58153 0.261586,1.40885 0.499257,2.93806 0.857423,4.40403 3.766361,2.48204 9.145424,2.76739 13.504248,1.65635 8.011133,-2.04172 13.303456,-9.83822 19.662101,-15.12181 7.550307,-6.27322 12.754706,-16.15447 21.922579,-19.6621 8.238739,-3.15239 17.708425,-1.0778 26.463488,0 6.188155,0.76176 12.828285,7.7698 18.161765,4.54041 5.09902,-3.08772 8.33602,-11.34292 7.15184,-17.57748 -1.58015,-0.95906 -3.48768,-1.29286 -5.57324,-1.24716 z"
     fill="url(#g)"
     opacity="0.4"
     id="path22"
     style="fill:url(#g);stroke-width:0.62358" /><path
     d="m 320.77814,169.02072 c -1.02878,0.0508 -1.47258,0.21944 -2.08513,0.79893 -1.24791,1.18068 -2.17966,4.22301 -1.81225,7.63885 0.36742,3.41585 2.05707,6.77582 3.64408,8.08721 0.33056,0.27316 0.47239,0.34931 1.20819,0.35077 0.73579,0.001 1.94519,-0.22708 3.41023,-0.66256 2.93002,-0.87095 6.63676,-2.64161 11.22444,-2.53329 8.5075,0.20091 19.02293,-0.8013 28.29494,4.40403 10.5198,5.90587 14.28872,17.22453 19.9739,23.55948 6.15641,6.86 10.09139,14.36791 15.62816,16.68076 3.41229,1.42526 8.14707,1.54118 10.52291,0.13641 0.83211,-0.49202 1.98286,-3.17963 3.2153,-6.78143 0.41873,-1.31632 0.66873,-2.34005 0.85743,-3.19585 -0.45147,0.0333 -0.34586,0.009 -0.91592,0.0779 -1.94095,0.23468 -4.52089,0.53553 -7.52162,0.46768 a 4.4925821,4.4925821 0 0 1 -0.87688,-0.0974 c -8.41022,-1.88427 -18.14368,-6.24328 -22.58544,-15.19976 -1.59662,-3.21967 -0.70253,-6.17432 -0.21436,-7.98931 0.48817,-1.81499 0.57044,-2.82513 0.58461,-2.76714 -0.73439,-3.0054 -2.48335,-6.03045 -4.5015,-7.54157 -2.06723,-1.54779 -5.90119,-2.14262 -10.17184,-2.49432 -1.32398,-0.10904 -4.5459,1.59512 -9.56821,0.87688 -9.19843,-1.31538 -15.57142,-6.92174 -21.45489,-8.51561 -3.36939,-0.91267 -6.59935,-2.4097 -9.58755,-3.54661 -2.98819,-1.13692 -5.7085,-1.83083 -7.26844,-1.75382 z"
     fill="url(#f)"
     id="path23"
     style="fill:url(#f);stroke-width:0.62358" /><path
     d="m 104.95087,126.24937 c -3.22123,11.14275 -3.7418,24.33271 1.31438,34.77144 8.70892,17.97968 27.47244,30.4862 45.58993,38.9064 28.1721,13.09269 60.89384,14.51009 91.95311,15.18355 23.60375,0.51169 48.54258,0.62726 70.31488,-8.50002 12.56701,-5.26775 26.24711,-13.12448 31.95162,-25.49943 4.20791,-9.12734 2.24457,-20.62428 -1.00372,-30.13575 -6.97973,-20.43721 -20.7808,-39.38157 -37.90244,-52.544098 -19.45507,-14.955943 -44.34963,-23.865654 -68.7684,-26.272049 -26.52086,-2.61305 -49.86707,-0.998102 -78.81428,13.40697 -15.14738,7.537211 -31.60927,13.755551 -44.04408,25.228177 -4.5893,4.23423 -8.85296,9.45534 -10.58714,15.45418 z"
     fill="#e88f1b"
     id="path24"
     style="stroke-width:0.62358" /><path
     d="m 105.94859,181.42372 c 0.15569,0.85331 0.31426,1.71447 0.5178,2.54914 2.43726,9.99536 7.71743,19.68081 14.41842,27.76178 8.30109,10.01033 19.84668,17.68223 31.66539,24.69501 12.03073,7.13875 24.9008,13.14756 38.19739,16.48995 9.44412,2.37403 19.99759,1.9119 30.90837,2.58898 14.70651,0.91261 28.89545,3.3896 42.29992,1.67288 12.37994,-1.58551 24.81911,-4.58649 35.6482,-10.03714 -1.73274,-2.75242 -3.63073,-5.10288 -5.73556,-6.61182 -8.85421,-6.34742 -22.1452,-0.36273 -32.46171,-3.86358 -9.07745,-3.0803 -15.38559,-12.58135 -24.73492,-14.69716 -11.0991,-2.51196 -22.63595,4.06537 -33.97513,3.1068 -13.011,-1.09993 -25.23442,-6.77956 -37.87875,-10.03714 -10.28408,-2.64953 -21.66691,-2.49476 -30.90836,-7.7274 -6.65672,-3.76886 -9.96294,-11.83805 -16.21121,-16.25112 -3.53346,-2.49551 -7.59708,-6.24079 -11.75012,-9.63868 z"
     fill="#edc893"
     opacity="0.5"
     id="path25"
     style="stroke-width:0.62358" /><path
     d="m 111.45481,113.52833 20.86311,-5.40893 40.95362,-5.40893 49.45301,3.86351 33.22621,10.04525 37.08992,9.27264 53.31671,35.54468 1.54542,6.18167 -18.54465,-44.04407 -16.99941,-21.63574 -32.4536,-19.317881 -40.181,-12.363098 -36.3173,0.772741 -33.99883,10.04525 -32.45359,13.908952 z"
     fill="#f3be5e"
     id="path26"
     style="stroke-width:0.62358" /><path
     d="m 239.70027,68.343727 -36.32541,0.756776 -0.27881,0.03978 -0.23898,0.03978 -33.97514,10.077053 h -0.11942 l -0.11943,0.07966 -32.4218,13.900846 -0.19915,0.07966 -0.19915,0.119428 -26.03759,21.56589 3.23239,1.74646 19.53926,-6.74277 0.23899,-0.0398 40.30821,-5.33728 h 0.0797 l 49.19048,3.86358 33.01919,9.95732 h 0.0398 l 0.0398,0.0398 36.72387,9.16101 51.14229,34.05495 c 2.93925,6.53824 8.02111,10.93448 4.96707,0.53368 -2.49464,-8.05104 -3.35044,-9.97416 -5.22567,-18.6968 l -11.96961,-20.71159 -0.0797,-0.23898 -0.15933,-0.19915 -17.00752,-21.62762 -0.23898,-0.27881 -0.27881,-0.19916 -32.46171,-19.317878 -0.19914,-0.119421 -0.19916,-0.03979 -40.1891,-12.387417 -0.31865,-0.07966 h -0.27881 z m -0.27882,3.82373 39.63101,12.187871 31.98404,19.039142 19.96703,25.8343 9.66674,26.10493 c 0,0 -11.89292,-9.47779 -18.17487,-13.74994 -9.15976,-6.22919 -28.38723,-17.27816 -28.38723,-17.27816 l -0.27881,-0.19914 -0.31865,-0.0797 -37.00261,-9.24084 -0.0797,-0.0398 -33.13891,-9.99724 -0.19916,-0.0797 -6.20936,-1.91233 -43.45916,-1.95118 h -0.3983 l -40.94551,5.41691 h -0.11943 l -0.11943,0.0398 -11.11282,2.86778 17.28626,-12.506522 31.94414,-13.701923 0.19915,-0.07966 33.53738,-8.551776 35.72801,-2.122729 z"
     fill="#c86f0c"
     id="path27"
     style="stroke-width:0.62358" /><path
     d="m 187.12,89.857237 c -4.95228,0.172413 -9.89559,0.549979 -14.81688,1.194904 -16.83417,2.206226 -47.59724,14.020569 -47.59724,14.020569 a 1.9231274,1.9231274 0 1 0 1.39408,3.58472 c 0,0 31.02996,-11.770077 46.68119,-13.821032 19.14765,-2.50941 38.87398,-0.943289 58.23178,1.553401 16.7612,2.161702 33.75251,4.771131 48.95165,11.431471 16.54732,7.25099 31.49952,18.38251 45.04804,30.58971 4.36369,3.93149 12.10868,14.37851 12.10868,14.37851 a 1.9122803,1.9122803 0 1 0 3.1068,-2.23048 c 0,0 -7.48358,-10.3427 -12.62625,-14.97652 C 313.87,123.21066 298.5636,111.84217 281.47813,104.35547 265.66165,97.425004 248.31365,94.775412 231.49071,92.605354 216.87774,90.720708 201.97667,89.33979 187.11988,89.85705 Z"
     fill="#f0ba58"
     id="path28"
     style="stroke-width:0.62358" /><path
     d="m 304.35928,233.56561 7.19736,-3.04132 4.5681,-3.96273 0.91198,-4.2222 -3.62774,4.5194 c 0,0 -3.27236,1.23762 -4.57751,2.36985 -1.30515,1.13224 -4.47213,4.337 -4.47213,4.337 z"
     fill="#aa9062"
     id="path29"
     style="stroke-width:0.62358" /><path
     d="m 114.79096,187.14819 1.15905,7.72678 2.70446,5.40893 3.86352,1.93179 -3.47721,-4.63626 c 0,0 -0.38635,-3.4772 -1.15905,-5.02256 -0.77269,-1.54535 -3.09083,-5.40893 -3.09083,-5.40893 z"
     fill="#aa9062"
     id="path31"
     style="stroke-width:0.62358" /><path
     d="m 123.57097,118.94101 43.85326,-6.04867 51.41355,3.02437 52.92572,15.12181 31.75582,12.09745 22.68272,15.12182 c 0,0 -5.1678,12.20471 -10.58527,15.12181 -15.9836,8.60603 -36.32291,2.68071 -54.43791,1.51219 -19.35156,-1.24829 -38.28657,-6.1896 -57.46228,-9.07309 -14.09852,-2.11993 -29.02266,-0.96038 -42.34108,-6.04867 -15.27958,-5.8377 -34.73029,-12.04195 -40.8289,-27.21926 -1.73262,-4.31212 3.02437,-13.60964 3.02437,-13.60964 z"
     fill="url(#e)"
     opacity="0.7"
     id="path33"
     style="fill:url(#e);stroke-width:0.62358" /><path
     d="m 135.26309,98.331689 28.87051,-11.227558 30.47435,-11.227558 36.35534,-3.742415 29.40491,6.415391 31.54317,11.761966 19.2468,12.831405 17.64295,20.31624 8.55427,20.31623 -35.2859,-28.33547 -47.58227,-20.316238 -65.22647,-3.207821 -43.30513,4.277073 z"
     fill="url(#d)"
     id="path34"
     style="fill:url(#d);stroke-width:0.62358" /><path
     d="m 305.73707,316.62063 10.85624,-1.62848 7.59964,-3.79981 2.71418,-5.4283 -6.514,4.88553 c 0,0 -4.88553,0.54283 -7.05677,1.62849 -2.17125,1.08564 -7.59964,4.34266 -7.59964,4.34266 z"
     fill="#aa9062"
     id="path30"
     style="stroke-width:0.876139" /><path
     d="m 315.29575,305.99744 4.31937,-1.62847 3.02355,-3.79982 1.07985,-5.4283 -2.59162,4.88553 c 0,0 -1.94371,0.54283 -2.80758,1.62848 -0.86388,1.08566 -3.02357,4.34268 -3.02357,4.34268 z"
     fill="#aa9062"
     id="path32"
     style="stroke-width:0.876139" /><path
     d="m 215.38419,133.58384 c 45.98834,0 83.16631,37.16132 83.16631,83.13171 0,45.97041 -37.17797,83.13173 -83.16631,83.13173 -45.98834,0 -83.08561,-37.16132 -83.08561,-83.13173 0,-45.97039 37.096,-83.13171 83.08561,-83.13171 z"
     fill="#ffffff"
     id="path1"
     style="stroke-width:12.8076" /><path
     d="m 215.38419,120.64813 c -52.97746,0 -96.01619,43.1015 -96.01619,96.05718 0,52.95568 43.03873,96.05718 96.01619,96.05718 52.97745,0 96.09817,-43.1015 96.09817,-96.05718 0,-52.95568 -43.12072,-96.05718 -96.09817,-96.05718 z m 0,12.92547 c 45.98834,0 83.16631,37.16131 83.16631,83.13171 0,45.97041 -37.17797,83.13173 -83.16631,83.13173 -45.98834,0 -83.08561,-37.16132 -83.08561,-83.13173 0,-45.9704 37.096,-83.13171 83.08561,-83.13171 z"
     fill="#999999"
     id="path2"
     style="stroke-width:12.8076;fill:#000080" /><path
     d="m 136.48923,214.6561 v 5.17044 h 9.69871 v -5.17044 z"
     fill="#999999"
     id="path3"
     style="stroke-width:12.8076;fill:#000080" /><path
     d="m 214.10342,285.09802 v 9.69461 h 5.17262 v -9.69461 z"
     fill="#999999"
     id="path4"
     style="stroke-width:12.8076;fill:#000080" /><path
     d="m 284.67343,212.09457 v 5.17057 h 9.69871 v -5.17057 z"
     fill="#999999"
     id="path5"
     style="stroke-width:12.8076;fill:#000080" /><path
     d="m 211.54191,137.04189 v 9.6946 h 5.17273 v -9.6946 z"
     fill="#999999"
     id="path6"
     style="stroke-width:12.8076;fill:#000080" /><path
     d="m 185.36132,149.9219 24.19434,77.24912 57.61416,-18.0447 c 6.90078,-2.16131 2.45038,-17.02174 -4.63606,-14.80228 l -42.80577,13.40671 -19.53415,-62.36982 c -1.71676,-5.4814 -16.51169,-0.80041 -14.83137,4.56464 l -0.001,-0.004 z"
     fill="#999999"
     id="path7"
     style="stroke-width:12.8076;fill:#000080"
     inkscape:transform-center-x="-12.896539"
     inkscape:transform-center-y="-29.79591" /><path
     d="m 175.98334,147.57194 -2.26312,1.29267 4.84936,8.32111 2.26297,-1.29254 z"
     fill="#999999"
     id="path8"
     style="stroke-width:12.8076;fill:#000080" /><path
     d="m 147.04899,176.41342 -1.29319,2.26196 8.40552,4.84731 1.29306,-2.26209 z"
     fill="#999999"
     id="path9"
     style="stroke-width:12.8076;fill:#000080" /><path
     d="m 155.45438,250.49618 -8.40539,4.8473 1.29306,2.26209 8.40551,-4.8473 z"
     fill="#999999"
     id="path10-9"
     style="stroke-width:12.8076;fill:#000080" /><path
     d="m 180.83255,275.8636 -4.84921,8.40206 2.18216,1.29255 4.84935,-8.40194 z"
     fill="#999999"
     id="path11-0"
     style="stroke-width:12.8076;fill:#000080" /><path
     d="m 252.27937,274.57106 -2.18217,1.29254 4.84935,8.40206 2.18218,-1.29268 z"
     fill="#999999"
     id="path12-3"
     style="stroke-width:12.8076;fill:#000080" /><path
     d="m 276.68776,248.31491 -1.29319,2.18127 8.40552,4.8473 1.29317,-2.18127 z"
     fill="#999999"
     id="path13-9"
     style="stroke-width:12.8076;fill:#000080" /><path
     d="m 282.5069,174.15135 -8.40552,4.8473 1.29319,2.26195 8.40552,-4.84718 z"
     fill="#999999"
     id="path14-0"
     style="stroke-width:12.8076;fill:#000080" /><path
     d="m 252.68358,146.27939 -4.84935,8.32112 2.26297,1.29267 4.84935,-8.32124 z"
     fill="#999999"
     id="path15-0"
     style="stroke-width:12.8076;fill:#000080" /></svg>
